<?xml version="1.0" standalone="no"?>
<!DOCTYPE svg PUBLIC "-//W3C//DTD SVG 20010904//EN"
 "http://www.w3.org/TR/2001/REC-SVG-20010904/DTD/svg10.dtd">
<svg version="1.0" xmlns="http://www.w3.org/2000/svg"
 width="415.000000pt" height="454.000000pt" viewBox="0 0 415.000000 454.000000"
 preserveAspectRatio="xMidYMid meet">

<g transform="translate(0.000000,454.000000) scale(0.100000,-0.100000)"
fill="#ffffff" stroke="none">
<path d="M847 4330 c-149 -37 -262 -163 -287 -320 -12 -81 -13 -682 0 -769 18
-129 99 -238 220 -295 l65 -31 205 0 c192 0 208 2 255 23 108 50 191 148 220
259 10 37 15 105 15 195 l0 138 169 0 170 0 27 -60 c32 -72 111 -150 179 -175
l45 -18 0 -1037 0 -1037 -45 -18 c-68 -25 -147 -103 -179 -175 l-27 -60 -170
0 -169 0 0 138 c0 90 -5 158 -15 195 -29 111 -112 209 -220 259 -47 21 -63 23
-255 23 l-205 0 -65 -31 c-121 -57 -202 -166 -220 -295 -12 -83 -12 -685 0
-768 18 -129 100 -238 220 -295 l65 -31 205 0 c192 0 208 1 254 23 108 50 192
148 221 259 10 37 15 105 15 195 l0 138 169 0 168 0 32 -65 c62 -125 179 -198
321 -198 142 0 259 73 321 198 l32 65 168 0 169 0 0 -138 c0 -90 5 -158 15
-195 29 -111 112 -209 220 -259 47 -22 62 -23 255 -23 l205 0 65 31 c120 57
198 162 219 295 13 79 14 680 1 768 -18 129 -99 238 -220 295 l-65 31 -205 0
c-192 0 -208 -2 -255 -23 -108 -50 -191 -148 -220 -259 -10 -37 -15 -105 -15
-195 l0 -138 -170 0 -170 0 -11 28 c-32 89 -114 177 -194 207 l-45 18 0 1037
0 1037 45 18 c68 25 147 103 179 175 l27 60 170 0 169 0 0 -138 c0 -90 5 -158
15 -195 29 -111 112 -209 220 -259 47 -21 63 -23 255 -23 l205 0 65 31 c121
57 202 166 220 295 13 87 12 688 0 769 -21 131 -97 232 -219 293 l-66 32 -205
0 c-193 0 -208 -1 -255 -23 -108 -50 -191 -148 -220 -259 -10 -37 -15 -105
-15 -195 l0 -138 -169 0 -168 0 -32 64 c-62 127 -178 199 -321 199 -143 0
-259 -72 -321 -199 l-32 -64 -168 0 -169 0 0 138 c0 90 -5 158 -15 195 -29
112 -113 210 -220 258 -45 21 -68 23 -235 25 -102 2 -202 -1 -223 -6z m405
-216 c87 -62 83 -37 86 -462 2 -207 0 -392 -3 -410 -7 -38 -55 -96 -99 -120
-25 -14 -59 -17 -186 -17 -142 0 -159 2 -197 23 -24 12 -55 41 -70 64 l-28 42
0 391 0 391 27 42 c51 76 106 92 296 88 128 -2 134 -3 174 -32z m2355 8 c24
-13 55 -41 70 -64 l28 -42 0 -391 0 -391 -28 -42 c-15 -23 -46 -52 -70 -64
-38 -21 -55 -23 -197 -23 -125 0 -161 3 -185 17 -40 22 -81 66 -94 101 -17 45
-15 769 3 810 15 38 76 95 109 101 12 3 31 7 42 10 11 3 79 4 150 2 112 -2
136 -5 172 -24z m-1289 -359 c98 -72 97 -204 -1 -277 -21 -16 -43 -21 -87 -21
-66 0 -99 18 -137 75 -27 39 -31 116 -9 158 18 34 53 68 86 81 37 16 117 7
148 -16z m-1083 -2405 c39 -21 81 -66 94 -101 7 -18 11 -162 11 -402 0 -240
-4 -384 -11 -402 -13 -35 -54 -79 -94 -101 -24 -14 -59 -17 -185 -17 -142 0
-159 2 -197 23 -24 12 -55 41 -70 64 l-28 42 0 391 0 391 27 42 c51 76 104 92
288 88 100 -2 143 -7 165 -18z m2372 -6 c24 -13 55 -41 70 -64 l28 -42 0 -391
0 -391 -28 -42 c-15 -23 -46 -52 -70 -64 -38 -21 -55 -23 -197 -23 -125 0
-161 3 -185 17 -40 22 -81 66 -94 101 -17 45 -15 769 3 810 15 38 76 95 109
101 12 3 31 7 42 10 11 3 79 4 150 2 112 -2 136 -5 172 -24z m-1314 -346 c18
-7 45 -28 62 -45 24 -26 30 -41 33 -94 3 -52 0 -67 -20 -96 -39 -58 -72 -76
-138 -76 -66 0 -99 18 -138 76 -20 29 -23 44 -20 96 3 53 9 68 33 94 54 56
123 73 188 45z"/>
</g>
</svg>
