<?xml version="1.0" standalone="no"?>
<!DOCTYPE svg PUBLIC "-//W3C//DTD SVG 20010904//EN"
 "http://www.w3.org/TR/2001/REC-SVG-20010904/DTD/svg10.dtd">
<svg version="1.0" xmlns="http://www.w3.org/2000/svg"
 width="512.000000pt" height="512.000000pt" viewBox="0 0 512.000000 512.000000"
 preserveAspectRatio="xMidYMid meet">

<g transform="translate(0.000000,512.000000) scale(0.100000,-0.100000)"
fill="#ffffff" stroke="none">
<path d="M2135 4255 c-38 -37 -32 -63 31 -122 l56 -53 -609 0 c-501 0 -619 -3
-671 -15 -168 -40 -299 -157 -363 -324 -16 -43 -23 -90 -29 -202 -6 -126 -10
-153 -33 -202 -52 -114 -167 -202 -280 -213 -29 -3 -64 -10 -78 -15 -50 -19
-58 -83 -14 -119 24 -20 123 -14 199 11 108 36 217 122 273 217 53 89 65 139
73 293 6 134 10 152 37 210 53 113 148 186 274 209 34 6 281 9 643 8 l589 -3
-56 -43 c-33 -25 -59 -53 -63 -68 -9 -37 24 -78 65 -82 27 -3 53 12 171 100
76 57 144 113 151 125 23 42 3 68 -146 192 -157 131 -178 139 -220 96z"/>
<path d="M3182 4257 c-42 -45 -31 -76 53 -144 l40 -33 -271 0 c-270 0 -271 0
-292 -23 -25 -27 -28 -65 -8 -93 13 -18 32 -19 296 -24 l282 -5 -61 -47 c-51
-40 -61 -53 -61 -78 0 -39 31 -70 70 -70 23 0 64 25 171 106 148 111 169 137
146 180 -7 13 -75 76 -152 139 -149 124 -173 134 -213 92z"/>
<path d="M1332 3549 c-236 -39 -383 -173 -448 -409 -16 -58 -18 -125 -22 -630
-4 -605 1 -698 43 -822 62 -183 196 -297 400 -339 84 -17 150 -19 940 -19 952
0 895 -4 895 69 0 24 -6 44 -17 52 -13 12 -170 15 -892 20 -941 6 -913 4
-1018 58 -98 49 -149 118 -185 247 -22 78 -22 90 -22 669 0 579 0 591 22 669
37 131 88 198 190 250 70 35 141 48 307 53 133 5 152 8 173 26 28 26 29 70 2
97 -18 18 -32 20 -167 19 -82 -1 -172 -5 -201 -10z"/>
<path d="M2040 3538 c-27 -29 -25 -69 3 -96 19 -18 35 -22 95 -22 85 0 112 18
112 74 0 51 -28 66 -117 66 -61 0 -75 -3 -93 -22z"/>
<path d="M2575 3540 c-26 -29 -24 -79 4 -102 22 -17 65 -18 980 -18 829 0 965
-2 1016 -15 72 -19 117 -46 147 -88 l23 -32 0 -845 c0 -970 8 -891 -93 -938
-56 -27 -61 -27 -304 -30 -228 -4 -248 -5 -267 -23 -27 -25 -27 -73 -1 -99 19
-19 33 -20 249 -20 248 0 305 7 390 46 69 31 105 65 139 129 l27 50 3 859 c2
745 1 866 -13 911 -19 68 -88 145 -159 180 -116 56 -80 55 -1142 55 -970 0
-981 0 -999 -20z"/>
<path d="M2384 3306 c-156 -49 -260 -229 -316 -546 -8 -48 -13 -160 -13 -315
0 -252 6 -313 51 -484 45 -173 137 -311 243 -363 l46 -23 795 -3 c885 -3 843
-6 913 65 105 105 139 302 139 808 0 583 -49 784 -207 856 -38 18 -85 19 -825
18 -614 0 -794 -3 -826 -13z m1541 -135 c-6 -4 -43 -32 -82 -60 l-73 -53 -525
1 -525 1 -75 56 c-41 31 -75 58 -75 60 0 2 307 4 682 4 387 0 678 -4 673 -9z
m-1402 -143 l99 -73 0 -510 0 -510 -124 -92 -123 -92 -24 22 c-56 53 -113 207
-142 392 -17 105 -17 455 0 560 30 187 74 314 133 381 l30 34 27 -19 c14 -11
70 -52 124 -93z m1541 -15 c28 -126 39 -333 33 -663 -5 -303 -14 -411 -40
-500 l-12 -41 -98 73 -97 73 -1 490 0 490 93 72 c51 39 96 72 100 72 3 1 13
-29 22 -66z m-474 -1301 c-187 -1 -494 -1 -683 0 l-342 3 80 58 80 58 495 0
c272 0 504 4 515 8 15 6 39 -7 108 -58 l88 -66 -341 -3z"/>
<path d="M1310 3261 c-83 -26 -151 -93 -174 -172 -19 -63 -22 -275 -5 -313 17
-37 59 -50 139 -42 129 12 221 64 251 143 5 13 9 96 9 184 0 156 -1 160 -25
184 -21 22 -32 25 -97 24 -40 0 -84 -4 -98 -8z"/>
<path d="M1164 2149 c-35 -18 -44 -53 -44 -178 0 -140 15 -200 66 -259 54 -63
103 -85 206 -90 82 -4 88 -3 112 21 26 26 26 28 26 186 0 88 -4 171 -9 184
-18 47 -71 96 -128 117 -65 24 -198 35 -229 19z"/>
<path d="M152 1905 c-35 -25 -46 -52 -32 -85 13 -32 43 -46 117 -54 113 -11
228 -99 280 -213 23 -49 27 -76 33 -202 6 -113 13 -159 29 -203 48 -124 138
-226 253 -284 103 -52 125 -54 781 -54 l609 0 -56 -53 c-63 -59 -69 -85 -31
-122 42 -43 63 -35 220 96 149 124 169 150 146 192 -7 12 -74 68 -150 125
-161 119 -196 129 -230 64 -20 -38 -6 -66 56 -113 l58 -44 -580 -3 c-336 -1
-606 2 -643 7 -132 20 -230 93 -285 210 -27 58 -31 76 -37 210 -6 109 -13 159
-28 198 -75 195 -227 312 -437 337 -37 5 -56 2 -73 -9z"/>
<path d="M3482 1447 c-27 -29 -28 -71 -2 -97 17 -17 33 -20 99 -20 94 0 124
17 124 70 0 53 -30 70 -122 70 -68 0 -80 -3 -99 -23z"/>
<path d="M3176 1128 c-32 -45 -21 -74 45 -126 l61 -47 -282 -5 c-264 -5 -283
-6 -296 -24 -23 -32 -17 -72 12 -95 26 -20 39 -21 293 -21 l266 0 -40 -32
c-65 -54 -75 -67 -75 -96 0 -35 37 -72 71 -72 28 0 296 216 316 255 23 42 1
69 -146 179 -116 87 -146 106 -175 106 -25 0 -39 -7 -50 -22z"/>
</g>
</svg>
