<?xml version="1.0" standalone="no"?>
<!DOCTYPE svg PUBLIC "-//W3C//DTD SVG 20010904//EN"
 "http://www.w3.org/TR/2001/REC-SVG-20010904/DTD/svg10.dtd">
<svg version="1.0" xmlns="http://www.w3.org/2000/svg"
 width="275.000000pt" height="207.000000pt" viewBox="0 0 275.000000 207.000000"
 preserveAspectRatio="xMidYMid meet">

<g transform="translate(0.000000,207.000000) scale(0.100000,-0.100000)"
fill="#ffffff" stroke="none">
<path d="M816 1729 c-36 -26 -56 -47 -54 -57 2 -9 27 -34 55 -56 l53 -39 -55
-39 c-30 -21 -55 -45 -55 -53 0 -20 105 -97 127 -93 12 2 18 12 18 31 l-1 27
241 0 c327 0 334 -2 530 -165 198 -163 177 -154 415 -189 154 -23 180 -22 180
9 0 25 -28 34 -180 55 -85 12 -173 30 -195 40 -22 9 -97 65 -167 123 -222 184
-233 188 -573 194 l-250 5 0 59 0 59 246 0 c359 0 414 -17 634 -200 66 -55
138 -108 160 -118 36 -17 234 -52 293 -52 28 0 40 26 21 45 -8 8 -63 21 -124
30 -61 9 -128 22 -150 30 -23 8 -95 60 -160 115 -128 107 -235 168 -340 195
-45 11 -121 15 -322 15 l-263 0 6 26 c4 17 2 29 -7 35 -20 13 -21 13 -83 -32z"/>
<path d="M772 1320 c-63 -15 -95 -60 -147 -203 -26 -73 -51 -136 -56 -142 -6
-6 -15 -3 -25 7 -15 15 -14 18 5 37 24 24 30 106 9 133 -15 18 -270 83 -293
74 -13 -5 -15 -23 -13 -108 l3 -103 36 -3 c30 -3 40 -9 58 -42 l21 -38 -41 -7
c-75 -13 -79 -23 -79 -206 l0 -160 40 -60 41 -59 118 0 119 0 7 -27 c27 -108
154 -183 262 -154 77 21 147 87 160 154 l6 27 257 0 258 0 5 -27 c13 -67 83
-133 160 -154 108 -29 235 46 262 153 l7 28 120 0 c126 0 167 11 188 49 6 12
10 99 10 210 l0 191 -27 30 c-27 30 -33 32 -231 61 l-204 29 -156 131 c-87 72
-182 143 -212 158 l-55 26 -290 2 c-159 1 -305 -2 -323 -7z m643 -79 c22 -10
113 -79 203 -154 111 -93 173 -138 195 -142 18 -3 108 -16 200 -29 92 -14 175
-30 183 -36 7 -7 14 -23 14 -36 0 -24 -2 -24 -90 -24 -73 0 -92 -3 -97 -16 -3
-8 3 -57 13 -107 l19 -92 78 -3 77 -3 0 -29 c0 -59 -1 -60 -134 -60 l-122 0
-13 36 c-17 47 -65 101 -112 125 -53 26 -139 25 -197 -2 -47 -23 -100 -87
-109 -131 l-5 -28 -258 0 -257 0 -6 28 c-9 44 -62 108 -109 131 -58 27 -144
28 -197 2 -47 -24 -95 -78 -112 -125 l-13 -36 -106 0 -105 0 -22 35 c-13 19
-23 46 -23 60 0 23 4 25 45 25 67 0 85 22 85 108 0 86 -12 104 -76 112 -47 5
-42 7 89 33 76 15 146 31 155 36 10 5 38 68 66 148 35 100 56 146 77 166 l29
27 298 0 c266 0 301 -2 337 -19z m-990 -110 c58 -14 71 -21 73 -39 3 -22 2
-23 -90 -20 l-93 3 -3 43 c-3 40 -2 42 20 37 13 -3 55 -14 93 -24z m43 -146
c16 -35 16 -35 -13 -35 -17 0 -29 9 -40 30 -15 30 -15 30 13 30 21 0 32 -7 40
-25z m-90 -242 c-3 -46 -4 -48 -33 -48 -29 0 -30 2 -33 48 l-3 47 36 0 36 0
-3 -47z m1832 -33 l0 -50 -49 0 c-28 0 -52 3 -54 8 -3 4 -8 26 -12 50 l-7 42
61 0 61 0 0 -50z m-1353 -96 c106 -51 113 -212 11 -274 -48 -29 -123 -27 -169
4 -68 47 -90 142 -46 207 50 74 129 98 204 63z m954 -7 c74 -50 98 -129 63
-204 -51 -106 -212 -113 -274 -11 -29 48 -27 123 4 169 47 69 142 90 207 46z"/>
<path d="M819 1185 c-14 -8 -31 -27 -38 -42 -23 -58 -59 -196 -54 -209 4 -12
80 -14 438 -14 397 0 433 1 439 17 8 21 -192 228 -241 249 -47 20 -506 19
-544 -1z m189 -127 l3 -78 -106 0 c-58 0 -105 3 -105 8 0 23 41 137 52 144 7
4 45 7 83 6 l70 -3 3 -77z m122 2 l0 -80 -30 0 -30 0 0 80 0 80 30 0 30 0 0
-80z m288 -3 l77 -77 -148 0 -147 0 0 81 0 81 70 -4 71 -4 77 -77z"/>
<path d="M1174 836 c-13 -35 3 -47 58 -44 49 3 53 5 53 28 0 23 -4 25 -53 28
-40 2 -54 -1 -58 -12z"/>
</g>
</svg>
