<?xml version="1.0" standalone="no"?>
<!DOCTYPE svg PUBLIC "-//W3C//DTD SVG 20010904//EN"
 "http://www.w3.org/TR/2001/REC-SVG-20010904/DTD/svg10.dtd">
<svg version="1.0" xmlns="http://www.w3.org/2000/svg"
 width="512.000000pt" height="512.000000pt" viewBox="0 0 512.000000 512.000000"
 preserveAspectRatio="xMidYMid meet">

<g transform="translate(0.000000,512.000000) scale(0.100000,-0.100000)"
fill="#ffffff" stroke="none">
<path d="M400 4867 c-49 -16 -133 -102 -148 -153 -17 -58 -17 -730 0 -788 16
-55 99 -138 154 -154 28 -8 129 -12 314 -12 185 0 286 4 314 12 55 16 138 99
154 154 7 24 12 100 12 178 l0 136 440 0 c400 0 440 -1 440 -16 0 -77 88 -189
166 -212 23 -7 85 -12 138 -12 l96 0 0 -400 0 -400 -96 0 c-53 0 -115 -5 -138
-12 -55 -16 -138 -99 -154 -154 -17 -58 -17 -890 0 -948 16 -55 99 -138 154
-154 23 -7 85 -12 138 -12 l96 0 0 -400 0 -400 -96 0 c-53 0 -115 -5 -138 -12
-78 -23 -166 -135 -166 -212 0 -15 -40 -16 -440 -16 l-440 0 0 136 c0 78 -5
154 -12 178 -16 55 -99 138 -154 154 -57 17 -571 17 -628 0 -55 -16 -138 -99
-154 -154 -17 -58 -17 -730 0 -788 16 -55 99 -138 154 -154 57 -17 571 -17
628 0 55 16 138 99 154 154 7 24 12 100 12 178 l0 136 440 0 c400 0 440 -1
440 -16 0 -77 88 -189 166 -212 57 -17 571 -17 628 0 78 23 166 135 166 212 0
15 40 16 440 16 l440 0 0 -136 c0 -78 5 -154 12 -178 16 -55 99 -138 154 -154
57 -17 571 -17 628 0 55 16 138 99 154 154 17 58 17 730 0 788 -16 55 -99 138
-154 154 -28 8 -129 12 -314 12 -185 0 -286 -4 -314 -12 -55 -16 -138 -99
-154 -154 -7 -24 -12 -100 -12 -178 l0 -136 -440 0 c-400 0 -440 1 -440 16 0
77 -88 189 -166 212 -23 7 -85 12 -138 12 l-96 0 0 400 0 400 96 0 c53 0 115
5 138 12 55 16 138 99 154 154 17 58 17 890 0 948 -16 55 -99 138 -154 154
-23 7 -85 12 -138 12 l-96 0 0 400 0 400 96 0 c53 0 115 5 138 12 78 23 166
135 166 212 0 15 40 16 440 16 l440 0 0 -136 c0 -78 5 -154 12 -178 16 -55 99
-138 154 -154 28 -8 129 -12 314 -12 185 0 286 4 314 12 55 16 138 99 154 154
17 58 17 730 0 788 -16 55 -99 138 -154 154 -28 8 -129 12 -314 12 -185 0
-286 -4 -314 -12 -55 -16 -138 -99 -154 -154 -7 -24 -12 -100 -12 -178 l0
-136 -440 0 c-400 0 -440 1 -440 16 0 77 -88 189 -166 212 -57 17 -571 17
-628 0 -78 -23 -166 -135 -166 -212 0 -15 -40 -16 -440 -16 l-440 0 0 136 c0
78 -5 154 -12 178 -16 55 -99 138 -154 154 -54 16 -583 15 -634 -1z m615 -172
l25 -24 0 -351 0 -351 -25 -24 -24 -25 -271 0 -271 0 -24 25 -25 24 0 351 0
351 25 24 24 25 271 0 271 0 24 -25z m3680 0 l25 -24 0 -351 0 -351 -25 -24
-24 -25 -271 0 -271 0 -24 25 -25 24 0 351 0 351 25 24 24 25 271 0 271 0 24
-25z m-1840 -240 c24 -23 25 -31 25 -135 0 -104 -1 -112 -25 -135 l-24 -25
-271 0 -271 0 -24 25 c-24 23 -25 31 -25 135 0 104 1 112 25 135 l24 25 271 0
271 0 24 -25z m0 -1440 l25 -24 0 -431 0 -431 -25 -24 -24 -25 -271 0 -271 0
-24 25 -25 24 0 431 0 431 25 24 24 25 271 0 271 0 24 -25z m-1840 -1840 l25
-24 0 -351 0 -351 -25 -24 -24 -25 -271 0 -271 0 -24 25 -25 24 0 351 0 351
25 24 24 25 271 0 271 0 24 -25z m3680 0 l25 -24 0 -351 0 -351 -25 -24 -24
-25 -271 0 -271 0 -24 25 -25 24 0 351 0 351 25 24 24 25 271 0 271 0 24 -25z
m-1840 -240 c24 -23 25 -31 25 -135 0 -104 -1 -112 -25 -135 l-24 -25 -271 0
-271 0 -24 25 c-24 23 -25 31 -25 135 0 104 1 112 25 135 l24 25 271 0 271 0
24 -25z"/>
</g>
</svg>
