<?xml version="1.0" standalone="no"?>
<!DOCTYPE svg PUBLIC "-//W3C//DTD SVG 20010904//EN"
 "http://www.w3.org/TR/2001/REC-SVG-20010904/DTD/svg10.dtd">
<svg version="1.0" xmlns="http://www.w3.org/2000/svg"
 width="139.000000pt" height="108.000000pt" viewBox="0 0 139.000000 108.000000"
 preserveAspectRatio="xMidYMid meet">

<g transform="translate(0.000000,108.000000) scale(0.100000,-0.100000)"
fill="#ffffff" stroke="none">
<path d="M495 928 c-86 -31 -130 -93 -154 -222 -13 -68 -22 -94 -37 -101 -85
-45 -114 -97 -114 -203 0 -90 16 -130 69 -172 41 -33 41 -34 41 -100 0 -77 10
-91 64 -93 53 -1 74 24 78 92 l3 56 235 0 235 0 3 -62 c3 -70 15 -84 68 -86
53 -1 74 28 74 103 0 55 2 59 33 79 67 41 104 162 78 259 -14 52 -61 107 -105
123 -31 11 -33 15 -50 102 -27 139 -61 192 -145 222 -52 18 -327 20 -376 3z
m359 -99 c31 -15 53 -59 66 -133 5 -33 10 -63 10 -68 0 -4 -115 -8 -256 -8
-238 0 -255 1 -250 18 2 9 10 44 16 77 9 44 20 67 45 92 l33 33 156 0 c93 0
165 -4 180 -11z m-391 -368 c49 -48 8 -141 -62 -141 -65 0 -103 70 -70 131 22
42 95 47 132 10z m522 19 c29 -11 58 -69 48 -97 -13 -38 -46 -63 -82 -63 -42
1 -66 17 -80 52 -16 43 3 92 44 108 27 12 39 12 70 0z"/>
</g>
</svg>
