<?xml version="1.0" standalone="no"?>
<!DOCTYPE svg PUBLIC "-//W3C//DTD SVG 20010904//EN"
 "http://www.w3.org/TR/2001/REC-SVG-20010904/DTD/svg10.dtd">
<svg version="1.0" xmlns="http://www.w3.org/2000/svg"
 width="1012.000000pt" height="986.000000pt" viewBox="0 0 1012.000000 986.000000"
 preserveAspectRatio="xMidYMid meet">

<g transform="translate(0.000000,986.000000) scale(0.100000,-0.100000)"
fill="#ffffff" stroke="none">
<path d="M2263 8522 c-63 -26 -126 -92 -146 -155 -17 -49 -18 -209 -15 -2777
l3 -2725 1980 0 1980 0 5 365 5 365 154 3 c205 4 279 -8 350 -56 67 -45 126
-128 141 -195 6 -31 10 -279 10 -685 1 -649 5 -747 39 -836 67 -177 211 -319
391 -387 57 -21 81 -24 205 -24 119 0 149 3 200 22 213 77 358 231 417 443 10
35 13 504 15 2163 l3 2117 -150 0 -150 0 0 -2083 0 -2083 -21 -62 c-27 -79
-89 -150 -166 -188 -51 -25 -69 -29 -148 -29 -78 1 -97 4 -141 27 -62 33 -126
94 -156 151 l-23 42 -6 705 c-4 486 -9 721 -18 755 -53 227 -202 394 -426 475
-53 20 -88 23 -290 29 l-230 6 -5 2235 -5 2235 -26 40 c-36 54 -65 80 -119
104 -45 20 -54 21 -1830 20 -1664 0 -1788 -1 -1827 -17z m3512 -1347 l0 -840
-1685 0 -1685 0 -3 843 -2 842 1687 -2 1688 -3 0 -840z m-1135 -1378 c0 -7 -4
-17 -9 -22 -5 -6 -28 -46 -51 -90 -53 -98 -73 -135 -137 -250 -28 -49 -66
-119 -85 -155 -20 -36 -62 -112 -94 -170 -33 -58 -65 -118 -71 -133 l-13 -27
325 0 c191 0 326 -4 330 -9 3 -6 -3 -18 -13 -28 -10 -10 -49 -56 -87 -103 -38
-47 -72 -87 -75 -90 -4 -4 -94 -112 -171 -205 -10 -11 -46 -54 -80 -96 -35
-42 -82 -98 -104 -124 -22 -27 -56 -67 -75 -90 -19 -23 -53 -63 -75 -90 -22
-27 -56 -67 -75 -90 -20 -22 -126 -148 -235 -280 -110 -132 -202 -242 -205
-245 -3 -3 -34 -40 -70 -83 -36 -43 -66 -73 -68 -68 -3 9 165 522 188 576 5
11 46 130 91 265 45 135 84 251 87 258 3 9 -53 12 -260 12 -146 0 -267 3 -271
6 -3 3 -2 14 3 23 5 9 16 32 24 51 28 67 57 135 66 155 5 11 18 41 29 68 12
26 30 68 42 95 11 26 24 56 29 67 9 21 26 60 60 140 52 123 79 186 95 220 8
17 23 53 35 80 12 28 25 59 30 70 5 11 18 43 30 70 11 28 27 62 35 77 8 14 15
31 15 36 0 6 15 43 34 84 18 40 36 81 39 91 6 16 33 17 372 17 293 0 365 -3
365 -13z"/>
<path d="M7342 8515 c-51 -43 -53 -56 -50 -380 l3 -300 115 0 115 0 3 303 c2
256 0 308 -13 336 -31 66 -119 87 -173 41z"/>
<path d="M8208 8522 c-56 -34 -59 -52 -56 -384 l3 -303 115 0 115 0 0 318 0
319 -37 34 c-43 39 -94 45 -140 16z"/>
<path d="M7117 7743 c-36 -10 -47 -55 -47 -201 0 -126 2 -142 21 -166 16 -21
29 -26 64 -26 24 0 47 -5 50 -11 7 -10 17 -46 50 -179 7 -30 27 -107 44 -170
17 -63 36 -134 42 -158 14 -52 58 -92 102 -92 40 0 94 -37 107 -74 5 -16 10
-78 10 -138 0 -108 0 -110 29 -139 l29 -29 221 0 c218 0 220 0 248 24 27 24
28 27 33 153 4 83 11 136 20 149 18 29 62 54 95 54 39 0 83 29 95 64 6 17 27
90 45 161 19 72 41 155 50 185 8 30 20 80 26 110 16 82 23 90 73 90 75 0 81
15 81 201 0 139 -2 161 -18 176 -17 17 -61 18 -735 19 -394 1 -725 0 -735 -3z"/>
<path d="M2060 2703 c-72 -24 -128 -71 -163 -137 -22 -40 -22 -48 -22 -506 l0
-465 27 -50 c27 -51 51 -77 103 -111 29 -19 72 -19 2070 -22 l2039 -2 51 26
c57 29 108 90 124 149 15 55 15 890 0 950 -15 58 -71 122 -133 151 l-51 24
-2015 -1 c-1108 0 -2022 -3 -2030 -6z"/>
</g>
</svg>
