<?xml version="1.0" standalone="no"?>
<!DOCTYPE svg PUBLIC "-//W3C//DTD SVG 20010904//EN"
 "http://www.w3.org/TR/2001/REC-SVG-20010904/DTD/svg10.dtd">
<svg version="1.0" xmlns="http://www.w3.org/2000/svg"
 width="153.000000pt" height="188.000000pt" viewBox="0 0 153.000000 188.000000"
 preserveAspectRatio="xMidYMid meet">

<g transform="translate(0.000000,188.000000) scale(0.100000,-0.100000)"
fill="#ffffff" stroke="none">
<path d="M575 1587 c-91 -36 -129 -91 -154 -220 -13 -69 -22 -95 -37 -102 -85
-45 -114 -97 -114 -203 0 -90 16 -130 69 -172 41 -33 41 -34 41 -100 0 -77 10
-91 64 -93 53 -1 74 24 78 92 l3 56 215 3 c118 2 225 0 237 -3 21 -5 23 -11
23 -64 0 -69 14 -85 68 -84 52 2 72 30 72 103 0 56 2 59 34 80 21 12 45 41 60
72 58 116 13 272 -88 309 -31 11 -33 15 -50 102 -27 139 -61 192 -145 222 -54
19 -329 20 -376 2z m359 -98 c31 -15 53 -59 66 -133 5 -33 10 -63 10 -68 0 -4
-115 -8 -256 -8 -238 0 -255 1 -250 18 2 9 10 44 16 77 9 44 20 67 45 92 l33
33 156 0 c93 0 165 -4 180 -11z m-391 -368 c49 -48 8 -141 -62 -141 -65 0
-103 70 -70 131 22 42 95 47 132 10z m522 19 c29 -11 58 -69 48 -97 -13 -38
-46 -63 -82 -63 -42 1 -66 17 -80 52 -16 43 3 92 44 108 27 12 39 12 70 0z"/>
<path d="M420 637 c0 -13 -11 -34 -25 -47 -36 -33 -50 -84 -35 -121 16 -37 38
-49 123 -65 120 -23 126 -48 32 -141 -74 -73 -81 -93 -32 -93 28 0 44 10 94
63 33 34 63 73 68 86 10 31 -2 85 -23 104 -17 15 -82 37 -157 53 -50 11 -55
32 -17 74 29 31 48 83 36 101 -3 5 -18 9 -35 9 -24 0 -29 -4 -29 -23z"/>
<path d="M1030 638 c-1 -13 -14 -39 -30 -58 -23 -26 -30 -44 -30 -75 0 -54 29
-82 101 -95 145 -27 158 -53 66 -137 -45 -42 -77 -81 -77 -95 0 -5 14 -8 31
-8 21 0 45 13 80 42 62 52 89 95 89 140 0 67 -42 95 -185 125 -48 10 -56 32
-21 65 26 24 46 67 46 99 0 15 -7 19 -35 19 -30 0 -35 -4 -35 -22z"/>
</g>
</svg>
